<svg viewBox="0 0 32 32" xml:space="preserve" xmlns="http://www.w3.org/2000/svg" fill-rule="evenodd" clip-rule="evenodd" stroke-linejoin="round" stroke-miterlimit="2"><path d="M10.014 5H4.002a3 3 0 0 0-3 3v16a3 3 0 0 0 3 3h23.995c.796 0 1.559-.316 2.121-.879A2.996 2.996 0 0 0 30.997 24V8c0-.796-.316-1.559-.879-2.121A2.996 2.996 0 0 0 27.997 5h-6.012a3 3 0 0 0-3-3h-5.971c-.796 0-1.559.316-2.121.879A2.996 2.996 0 0 0 10.014 5Zm11.799 2a3 3 0 0 1-2.828 2h-5.971a2.996 2.996 0 0 1-2.829-2H4.002a.997.997 0 0 0-1 1v16a.997.997 0 0 0 1 1h23.995a.997.997 0 0 0 1-1V8a.997.997 0 0 0-1-1h-6.184Zm-1.828-2v1a1.002 1.002 0 0 1-1 1h-5.971a.997.997 0 0 1-1-1V5a.997.997 0 0 1 1-1h5.971a1 1 0 0 1 1 1Z" fill="#f15f2c" class="fill-000000"></path><path d="M9.079 16.313a6.011 6.011 0 0 0-4.081 5.686 1.001 1.001 0 0 0 2 .002A4.002 4.002 0 0 1 10.991 18a4.001 4.001 0 0 1 3.993 4.001 1.001 1.001 0 0 0 2-.002 6.011 6.011 0 0 0-4.049-5.675 3.001 3.001 0 1 0-4.921-2.303c0 .918.414 1.741 1.065 2.292Zm1.935-3.292a1 1 0 1 1 0 2 1 1 0 0 1 0-2ZM26 11h-5.994a1 1 0 0 0 0 2H26a1 1 0 0 0 0-2ZM26 16h-5.994a1 1 0 0 0 0 2H26a1 1 0 0 0 0-2ZM26 21h-5.994a1 1 0 0 0 0 2H26a1 1 0 0 0 0-2Z" fill="#f15f2c" class="fill-000000"></path></svg>