<svg viewBox="0 0 24 24" xmlns="http://www.w3.org/2000/svg"><path d="m22.814 9.216-.826-5.368A1 1 0 0 0 21 3C15.533 3 12.731.316 12.707.293a1 1 0 0 0-1.41 0C11.269.316 8.467 3 3 3a1 1 0 0 0-.988.848l-.826 5.368A12.033 12.033 0 0 0 7.3 21.576l4.22 2.3a1 1 0 0 0 .958 0l4.22-2.3a12.033 12.033 0 0 0 6.116-12.36Zm-7.072 10.6L12 21.861 8.258 19.82a10.029 10.029 0 0 1-5.1-10.3l.7-4.541A14.717 14.717 0 0 0 12 2.3a14.717 14.717 0 0 0 8.139 2.68l.7 4.54a10.029 10.029 0 0 1-5.097 10.3Z" fill="#f15f2c" class="fill-232323"></path><path d="M15.293 8.293 10 13.586l-1.293-1.293a1 1 0 1 0-1.414 1.414l2 2a1 1 0 0 0 1.414 0l6-6a1 1 0 0 0-1.414-1.414Z" fill="#f15f2c" class="fill-232323"></path></svg>