<?xml version="1.0" ?><svg id="Icons" viewBox="0 0 24 24" xmlns="http://www.w3.org/2000/svg"><defs><style>.cls-1{fill:#232323;}</style></defs><path class="cls-1" d="M22.814,9.216l-.826-5.368A1,1,0,0,0,21,3C15.533,3,12.731.316,12.707.293a1,1,0,0,0-1.41,0C11.269.316,8.467,3,3,3a1,1,0,0,0-.988.848L1.186,9.216A12.033,12.033,0,0,0,7.3,21.576l4.22,2.3a1,1,0,0,0,.958,0l4.22-2.3A12.033,12.033,0,0,0,22.814,9.216Zm-7.072,10.6L12,21.861,8.258,19.82a10.029,10.029,0,0,1-5.1-10.3l.7-4.541A14.717,14.717,0,0,0,12,2.3,14.717,14.717,0,0,0,20.139,4.98l.7,4.54A10.029,10.029,0,0,1,15.742,19.82Z"/><path class="cls-1" d="M15.293,8.293,10,13.586,8.707,12.293a1,1,0,1,0-1.414,1.414l2,2a1,1,0,0,0,1.414,0l6-6a1,1,0,0,0-1.414-1.414Z"/></svg>