<?xml version="1.0" ?><svg xmlns="http://www.w3.org/2000/svg" width="24" height="24" viewBox="0 0 24 24" fill="none"><path fill-rule="evenodd" clip-rule="evenodd" d="M18 0.375L23.6667 11H12.3333L18 0.375ZM15.6667 9H20.3333L18 4.625L15.6667 9Z" fill="black"/><path fill-rule="evenodd" clip-rule="evenodd" d="M1 1H11V11H1V1ZM3 3V9H9V3H3Z" fill="black"/><path fill-rule="evenodd" clip-rule="evenodd" d="M1 18C1 15.2386 3.23858 13 6 13C8.76142 13 11 15.2386 11 18C11 20.7614 8.76142 23 6 23C3.23858 23 1 20.7614 1 18ZM6 15C4.34315 15 3 16.3431 3 18C3 19.6569 4.34315 21 6 21C7.65685 21 9 19.6569 9 18C9 16.3431 7.65685 15 6 15Z" fill="black"/><path d="M13 13H23V15H13V13Z" fill="black"/><path d="M13 17H23V19H13V17Z" fill="black"/><path d="M13 21H23V23H13V21Z" fill="black"/></svg>